# xmcd
#
# Track frame offsets: 
#        150
#        6367
#        27904
#        50165
#        69971
#        72228
#        95310
#        118723
#        139860
#        143243
#        162503
#        184924
#        202038
#        223027
#        245934
#        270087
#
# Disc length: 3891 seconds
#
# Revision: 0
# Processed by: cddbd v1.5.2PL0 Copyright (c) Steve Scherf et al.
# Submitted via: ExactAudioCopy v1.0b3
#
DISCID=f60f3110
DTITLE=Mary J. Blige - Share My World [In-Store Play Promo]
DYEAR=1997
DGENRE=Hip-Hop Soul
TTITLE0=Album Intro
TTITLE1=I Can Love You
TTITLE2=Love Is All We Need
TTITLE3=Round and Round
TTITLE4=Share My World (Interlude)
TTITLE5=Share My World
TTITLE6=Seven Days
TTITLE7=It's On
TTITLE8=Thank You
TTITLE9=Missing You
TTITLE10=Everything
TTITLE11=Keep Your Head
TTITLE12=Can't Get You Off My Mind
TTITLE13=Seachin'
TTITLE14=Our Love
TTITLE15=Not Gon' Cry
EXTD=
EXTT0=
EXTT1=
EXTT2=
EXTT3=
EXTT4=
EXTT5=
EXTT6=
EXTT7=
EXTT8=
EXTT9=
EXTT10=
EXTT11=
EXTT12=
EXTT13=
EXTT14=
EXTT15=
PLAYORDER=
